<svg width="43" height="43" viewBox="0 0 43 43" fill="none" xmlns="http://www.w3.org/2000/svg">
<path d="M10.4813 30.6375C12.0042 29.4729 13.7063 28.5547 15.5875 27.8828C17.4688 27.2109 19.4396 26.875 21.5 26.875C23.5605 26.875 25.5313 27.2109 27.4125 27.8828C29.2938 28.5547 30.9959 29.4729 32.5188 30.6375C33.5639 29.4132 34.3776 28.0247 34.9599 26.4719C35.5422 24.9191 35.8334 23.2618 35.8334 21.5C35.8334 17.5285 34.4374 14.1467 31.6454 11.3547C28.8533 8.56268 25.4716 7.16667 21.5 7.16667C17.5285 7.16667 14.1467 8.56268 11.3547 11.3547C8.56271 14.1467 7.16671 17.5285 7.16671 21.5C7.16671 23.2618 7.45785 24.9191 8.04014 26.4719C8.62244 28.0247 9.43615 29.4132 10.4813 30.6375ZM21.5 23.2917C19.7382 23.2917 18.2526 22.687 17.0433 21.4776C15.8339 20.2682 15.2292 18.7826 15.2292 17.0208C15.2292 15.259 15.8339 13.7734 17.0433 12.5641C18.2526 11.3547 19.7382 10.75 21.5 10.75C23.2618 10.75 24.7474 11.3547 25.9568 12.5641C27.1662 13.7734 27.7709 15.259 27.7709 17.0208C27.7709 18.7826 27.1662 20.2682 25.9568 21.4776C24.7474 22.687 23.2618 23.2917 21.5 23.2917ZM21.5 39.4167C19.0216 39.4167 16.6924 38.9464 14.5125 38.0057C12.3327 37.0651 10.4365 35.7885 8.824 34.176C7.2115 32.5635 5.93494 30.6674 4.99431 28.4875C4.05369 26.3076 3.58337 23.9785 3.58337 21.5C3.58337 19.0215 4.05369 16.6924 4.99431 14.5125C5.93494 12.3326 7.2115 10.4365 8.824 8.82396C10.4365 7.21146 12.3327 5.9349 14.5125 4.99427C16.6924 4.05365 19.0216 3.58334 21.5 3.58334C23.9785 3.58334 26.3077 4.05365 28.4875 4.99427C30.6674 5.9349 32.5636 7.21146 34.1761 8.82396C35.7886 10.4365 37.0651 12.3326 38.0058 14.5125C38.9464 16.6924 39.4167 19.0215 39.4167 21.5C39.4167 23.9785 38.9464 26.3076 38.0058 28.4875C37.0651 30.6674 35.7886 32.5635 34.1761 34.176C32.5636 35.7885 30.6674 37.0651 28.4875 38.0057C26.3077 38.9464 23.9785 39.4167 21.5 39.4167ZM21.5 35.8333C23.0827 35.8333 24.5757 35.6019 25.9792 35.1391C27.3827 34.6762 28.6667 34.0118 29.8313 33.1458C28.6667 32.2799 27.3827 31.6155 25.9792 31.1526C24.5757 30.6898 23.0827 30.4583 21.5 30.4583C19.9174 30.4583 18.4243 30.6898 17.0209 31.1526C15.6174 31.6155 14.3334 32.2799 13.1688 33.1458C14.3334 34.0118 15.6174 34.6762 17.0209 35.1391C18.4243 35.6019 19.9174 35.8333 21.5 35.8333ZM21.5 19.7083C22.2764 19.7083 22.9184 19.4545 23.4261 18.9469C23.9337 18.4392 24.1875 17.7972 24.1875 17.0208C24.1875 16.2444 23.9337 15.6024 23.4261 15.0948C22.9184 14.5872 22.2764 14.3333 21.5 14.3333C20.7237 14.3333 20.0816 14.5872 19.574 15.0948C19.0664 15.6024 18.8125 16.2444 18.8125 17.0208C18.8125 17.7972 19.0664 18.4392 19.574 18.9469C20.0816 19.4545 20.7237 19.7083 21.5 19.7083Z" fill="#767676"/>
</svg>
